<svg height="512pt" viewBox="-31 0 512 512.00144" width="512pt" xmlns="http://www.w3.org/2000/svg"><path d="m171.726562 331.007812h104.398438c7.464844 0 13.792969-5.488281 14.847656-12.878906l17.144532-119.996094c1.289062-9.023437-5.71875-17.121093-14.847657-17.121093h-104.398437c-7.464844 0-13.792969 5.488281-14.851563 12.875l-17.144531 120c-1.289062 9.023437 5.71875 17.121093 14.851562 17.121093zm30.152344-119.996093h74.09375l-12.855468 89.996093h-74.097657zm0 0"/><path d="m45 301.007812c-24.8125 0-45 20.1875-45 45s20.1875 45 45 45h40.289062l-9.832031 69.628907c-3.507812 24.5625 13.617188 47.398437 38.195313 50.914062 25.054687 3.542969 47.460937-14.222656 50.890625-38.195312l11.640625-82.347657h74.105468l-9.832031 69.628907c-3.511719 24.5625 13.613281 47.398437 38.191407 50.914062 25.054687 3.542969 47.464843-14.222656 50.894531-38.195312l11.636719-82.347657h48.816406c24.8125 0 45-20.1875 45-45s-20.1875-45-45-45h-35.976563l12.855469-89.996093h38.121094c24.8125 0 44.996094-20.1875 44.996094-45s-20.183594-45-44.996094-45h-25.292969l9.832031-69.628907c3.507813-24.5625-13.613281-47.398437-38.121094-50.902343-24.574218-3.585938-47.449218 13.40625-50.964843 38.183593l-11.636719 82.347657h-74.105469l9.832031-69.628907c3.507813-24.5625-13.613281-47.398437-38.128906-50.90625-24.707031-3.59375-47.453125 13.496094-50.957031 38.1875l-11.640625 82.347657h-63.8125c-24.8125 0-45 20.1875-45 45s20.1875 45 45 45h50.976562l-12.859374 89.996093zm83.273438-119.996093h-68.273438c-8.269531 0-15-6.730469-15-15 0-8.273438 6.730469-15 15-15h76.84375c7.472656 0 13.804688-5.5 14.851562-12.898438l13.460938-95.242187c1.152344-8.113282 8.566406-13.925782 16.96875-12.699219 8.183594 1.167969 13.886719 8.78125 12.714844 16.992187l-12.25 86.75c-1.277344 9.035157 5.746094 17.097657 14.851562 17.097657h104.398438c7.472656 0 13.808594-5.5 14.855468-12.898438l13.460938-95.242187c1.160156-8.164063 8.652344-13.921875 16.964844-12.699219 8.183594 1.167969 13.890625 8.78125 12.714844 16.992187l-12.25 86.75c-1.273438 9.035157 5.75 17.097657 14.855468 17.097657h42.554688c8.273437 0 15 6.726562 15 15 0 8.269531-6.726563 15-15 15h-51.125c-7.464844 0-13.792969 5.488281-14.851563 12.875l-17.144531 120c-1.289062 9.023437 5.71875 17.121093 14.851562 17.121093h53.269532c8.273437 0 15 6.730469 15 15 0 8.269532-6.726563 15-15 15h-61.84375c-7.472656 0-13.804688 5.5-14.855469 12.898438l-13.457031 95.222656c-1.132813 7.921875-8.519532 13.917969-16.96875 12.71875-8.183594-1.167968-13.886719-8.78125-12.714844-16.992187l12.25-86.75c.605469-4.300781-.679688-8.65625-3.527344-11.9375-2.851562-3.277344-6.980468-5.160157-11.324218-5.160157h-104.402344c-7.472656 0-13.804688 5.5-14.851563 12.898438l-13.460937 95.222656c-1.128906 7.921875-8.515625 13.917969-16.964844 12.71875-8.183594-1.167968-13.890625-8.78125-12.714844-16.992187l12.25-86.75c.605469-4.304688-.679687-8.65625-3.53125-11.9375-2.847656-3.277344-6.976562-5.160157-11.324218-5.160157h-57.554688c-8.269531 0-15-6.730468-15-15 0-8.273437 6.730469-15 15-15h66.128906c7.464844 0 13.789063-5.492187 14.847656-12.878906l17.144532-120c1.289062-9.019531-5.71875-17.117187-14.847656-17.117187zm0 0"/></svg>